<?xml version="1.0" encoding="UTF-8" standalone="no"?>
<!DOCTYPE svg PUBLIC "-//W3C//DTD SVG 1.1//EN" "http://www.w3.org/Graphics/SVG/1.1/DTD/svg11.dtd">
<svg width="100%" height="100%" viewBox="0 0 32 32" version="1.1" xmlns="http://www.w3.org/2000/svg" xmlns:xlink="http://www.w3.org/1999/xlink" xml:space="preserve" xmlns:serif="http://www.serif.com/" style="fill-rule:evenodd;clip-rule:evenodd;stroke-linecap:round;stroke-linejoin:round;stroke-miterlimit:1.5;">
    <g transform="matrix(0.952178,0,0,0.952178,0.730237,0.863836)">
        <path d="M32.053,10.131L32.053,21.662C32.053,27.319 27.46,31.912 21.802,31.912L10.271,31.912C4.614,31.912 0.021,27.319 0.021,21.662L0.021,10.131C0.021,4.473 4.614,-0.12 10.271,-0.12L21.802,-0.12C27.46,-0.12 32.053,4.473 32.053,10.131Z" style="fill:none;stroke:black;stroke-width:2.19px;"/>
    </g>
    <g transform="matrix(0.00438,0,0,0.00438,16,16)">
        <g transform="matrix(1,0,0,1,-2500,-2500)">
            <g transform="matrix(4.16667,0,0,4.16667,0,0)">
                <path d="M1129.4,152.95L70.6,152.95C23.561,152.95 0.002,176.493 0.002,223.548L0.002,1047.06L70.6,1047.06L70.6,223.538L299.26,223.538L213.1,719.328C173.799,715.668 136.455,740.82 125.991,780.226C114.327,824.195 140.522,869.277 184.479,880.926C228.436,892.59 273.53,866.406 285.179,822.449C295.644,783.054 275.652,742.695 239.71,726.379L421.33,223.529L470.541,223.529L515.639,738.939C476.709,745.502 447.045,779.369 447.045,820.166C447.045,865.611 483.92,902.51 529.412,902.51C574.881,902.51 611.756,865.612 611.756,820.166C611.756,779.377 582.104,745.502 543.178,738.951L588.276,223.521L635.135,223.521L680.35,740.061C641.436,746.612 611.756,780.491 611.756,821.264C611.756,866.733 648.654,903.608 694.1,903.608C739.569,903.608 776.455,866.733 776.455,821.264C776.455,780.498 746.791,746.612 707.861,740.061L753.052,223.521L799.732,223.521L845.033,741.181C806.131,747.755 776.455,781.611 776.455,822.384C776.455,867.864 813.33,904.728 858.799,904.728C904.268,904.728 941.143,867.865 941.143,822.384C941.143,781.618 911.467,747.755 872.549,741.181L917.85,223.521L1129.39,223.521L1129.39,1047.03L1199.98,1047.03L1199.98,223.521C1200,176.455 1176.47,152.935 1129.42,152.935L1129.4,152.95ZM255.26,614.04L323.119,223.54L396.295,223.54L255.26,614.04ZM529.41,626.352L494.152,223.532L564.64,223.532L529.41,626.352ZM694.1,627.477L658.76,223.527L729.451,223.527L694.1,627.477ZM858.8,628.618L823.362,223.548L894.233,223.548L858.8,628.618Z" style="fill-rule:nonzero;"/>
            </g>
        </g>
    </g>
</svg>
